<?xml version="1.0" encoding="iso-8859-1"?>
<!-- Generator: Adobe Illustrator 19.0.0, SVG Export Plug-In . SVG Version: 6.00 Build 0)  -->
<svg xmlns="http://www.w3.org/2000/svg" xmlns:xlink="http://www.w3.org/1999/xlink" version="1.1" id="Layer_1" x="0px" y="0px" viewBox="0 0 512 512" style="enable-background:new 0 0 512 512;" xml:space="preserve" width="512" height="512">
<g>
	<circle style="fill:#FDBF00;" cx="256" cy="256" r="256"/>
	<path style="fill:#FF9100;" d="M511.94,251.236L367.716,107.012L213.714,261.015l7.844,7.844l-77.34,77.34l66.547,66.547   l-32.234,32.234l66.782,66.782C248.859,511.907,252.418,512,256,512c141.385,0,256-114.615,256-256   C512,254.407,511.969,252.822,511.94,251.236z"/>
	<g>
		<path style="fill:#E0F4FF;" d="M399.965,189.555c0,27.464-7.752,56.921-22.148,83.278v49.612c0,18.383-14.84,33.223-33.223,33.223    c-6.201,0-11.074,4.873-11.074,11.074v11.074l-12.846,15.282l12.846,6.866V445H178.48v-45.035l12.846-7.309l-12.846-14.839    v-11.074c0-6.202-4.873-11.074-11.074-11.074c-18.383,0-33.223-14.84-33.223-33.223v-49.612    c-14.396-26.357-22.148-55.814-22.148-83.278C112.035,115.579,168.514,67,256,67S399.965,115.579,399.965,189.555z"/>
		<path style="fill:#BBDCFF;" d="M399.965,189.555c0,27.464-7.752,56.921-22.148,83.278v49.612c0,18.383-14.84,33.223-33.223,33.223    c-6.201,0-11.074,4.873-11.074,11.074v11.074l-12.846,15.282l12.846,6.866V445H256V67C343.486,67,399.965,115.579,399.965,189.555    z"/>
		<path style="fill:#575F64;" d="M200.629,178.48c-24.363,0-44.297,19.933-44.297,44.297c0,24.363,19.934,44.297,44.297,44.297    s44.297-19.934,44.297-44.297C244.926,198.413,224.992,178.48,200.629,178.48z"/>
		<path style="fill:#32393F;" d="M311.371,178.48c-24.363,0-44.297,19.933-44.297,44.297c0,24.363,19.934,44.297,44.297,44.297    s44.297-19.934,44.297-44.297C355.668,198.413,335.734,178.48,311.371,178.48z"/>
		<path style="fill:#575F64;" d="M256.886,267.074H256c-22.813,0-33.223,42.525-33.223,55.371c0,6.645,2.215,11.517,6.423,14.175    c6.645,4.43,13.289,1.55,18.162-0.443c2.805-1.203,5.795-1.861,8.638-1.809c0.295,0,0.591,0.015,0.886,0.037    c2.658,0,5.094,0.664,7.752,1.772c6.866,2.658,11.739,4.651,18.162,0.443c4.208-2.658,6.423-7.53,6.423-14.175    C289.223,309.821,279.034,268.182,256.886,267.074z"/>
		<rect x="178.48" y="377.816" style="fill:#BBDCFF;" width="155.039" height="22.148"/>
		<rect x="216.133" y="355.668" style="fill:#BBDCFF;" width="22.148" height="66.445"/>
		<rect x="271.504" y="355.668" style="fill:#9ABADB;" width="22.148" height="66.445"/>
		<path style="fill:#32393F;" d="M289.223,322.445c0,6.645-2.215,11.517-6.423,14.175c-6.423,4.208-11.296,2.215-18.162-0.443    c-2.658-1.107-5.094-1.772-7.752-1.772c-0.295-0.022-0.591-0.037-0.886-0.037v-67.294h0.886    C279.034,268.182,289.223,309.821,289.223,322.445z"/>
		<rect x="256" y="377.816" style="fill:#9ABAFF;" width="77.52" height="22.148"/>
	</g>
</g>















</svg>
