<?xml version="1.0" encoding="iso-8859-1"?>
<!-- Generator: Adobe Illustrator 21.0.0, SVG Export Plug-In . SVG Version: 6.00 Build 0)  -->
<svg xmlns="http://www.w3.org/2000/svg" xmlns:xlink="http://www.w3.org/1999/xlink" version="1.1" id="Capa_1" x="0px" y="0px" viewBox="0 0 512 512" style="enable-background:new 0 0 512 512;" xml:space="preserve" width="512" height="512">
<g>
	<circle style="fill:#30CBEF;" cx="256" cy="256" r="256"/>
	<path style="fill:#00AABC;" d="M188.168,407l102.636,102.636C415.723,492.653,512,385.578,512,256c0-1.084-0.028-2.162-0.041-3.243   l-117.01-117.01l-37.781-12.462l-18-18.284l-166.336,25.845L119,139l-0.949,60.12l61.687,61.701l18.365,26.494   c0,0,28.268,28.275,28.405,28.41v38.188L188.168,407z"/>
	<g>
		<path style="fill:#FFB742;" d="M285.492,371.609h-58.984V293.16h58.984V371.609z"/>
		<path style="fill:#FE8100;" d="M285.492,371.609H256V293.16h29.492V371.609z"/>
		<path style="fill:#FFB742;" d="M190.527,211.172h-42.764c-23.58,0-42.764-19.184-42.764-42.764v-2.949    c0-23.58,19.184-42.764,42.764-42.764s42.764,19.184,42.764,42.764V211.172z M147.764,140.391    c-13.823,0-25.068,11.246-25.068,25.068v2.949c0,13.823,11.246,25.068,25.068,25.068h25.068v-28.018    C172.832,151.636,161.586,140.391,147.764,140.391z"/>
		<path style="fill:#FE8100;" d="M364.236,211.172h-42.764v-45.713c0-23.58,19.184-42.764,42.764-42.764S407,141.879,407,165.459    v2.949C407,191.988,387.816,211.172,364.236,211.172z M339.168,193.477h25.068c13.823,0,25.068-11.246,25.068-25.068v-2.949    c0-13.823-11.246-25.068-25.068-25.068s-25.068,11.246-25.068,25.068V193.477z"/>
		<path style="fill:#FFE2BA;" d="M256,310.855c-45.859,0-83.168-37.309-83.168-83.168V105h166.336v122.688    C339.168,273.547,301.859,310.855,256,310.855z"/>
		<path style="fill:#FFC474;" d="M256,105v205.855c45.859,0,83.168-37.309,83.168-83.168V105H256z"/>
		<path style="fill:#FF6E84;" d="M289.031,193.477h-11.797v-35.391h-12.387v-17.695h-17.695v17.695h-23.004v88.477h23.004v17.695    h17.695v-17.695h24.184V193.477z M241.844,175.781h17.695v17.695h-17.695V175.781z M271.336,228.867h-29.492v-17.695h29.492    V228.867z"/>
		<path style="fill:#FFC474;" d="M323.832,407H188.168v-18.285c0-19.189,15.612-34.801,34.801-34.801h66.063    c19.189,0,34.801,15.612,34.801,34.801V407z"/>
		<polygon style="fill:#FE3B7F;" points="277.234,158.086 264.848,158.086 264.848,140.391 256,140.391 256,175.781     259.539,175.781 259.539,193.477 256,193.477 256,211.172 271.336,211.172 271.336,228.867 256,228.867 256,264.258     264.848,264.258 264.848,246.563 289.031,246.563 289.031,193.477 277.234,193.477   "/>
		<path style="fill:#FFB742;" d="M289.031,353.914H256V407h67.832v-18.285C323.832,369.526,308.22,353.914,289.031,353.914z"/>
	</g>
</g>















</svg>
